<svg xmlns="http://www.w3.org/2000/svg" width="144.704" height="23.723" viewBox="0 0 144.704 23.723">
  <g id="Group_2818" data-name="Group 2818" transform="translate(0 0)">
    <g id="Group_2144" data-name="Group 2144">
      <g id="Group_2131" data-name="Group 2131" transform="translate(0 4.739)">
        <g id="Group_2130" data-name="Group 2130">
          <path id="Path_1793" data-name="Path 1793" d="M-177.241,189.717a4.078,4.078,0,0,0,3.921-4.223,4.108,4.108,0,0,0-3.921-4.273,4.107,4.107,0,0,0-3.92,4.273,4.078,4.078,0,0,0,3.92,4.223Zm3.971,1.96v-1.507a5.033,5.033,0,0,1-4.021,1.734,6.5,6.5,0,0,1-6.509-6.459,6.473,6.473,0,0,1,6.509-6.484,5.032,5.032,0,0,1,4.021,1.735v-1.619l2.439,1.032v12.578l-2.439-1.01Z" transform="translate(183.8 -178.96)" fill="#fff"/>
        </g>
      </g>
      <g id="Group_2133" data-name="Group 2133" transform="translate(15.191 4.714)">
        <g id="Group_2132" data-name="Group 2132">
          <path id="Path_1794" data-name="Path 1794" d="M-169.8,185.35a4.141,4.141,0,0,0,3.87,4.171,4.143,4.143,0,0,0,3.9-4.171,4.144,4.144,0,0,0-3.9-4.173,4.142,4.142,0,0,0-3.87,4.173Zm-2.463,11.611V179.082l2.363,1.029v.463a5.737,5.737,0,0,1,4.021-1.634,6.456,6.456,0,0,1,6.458,6.459,6.456,6.456,0,0,1-6.458,6.459A5.7,5.7,0,0,1-169.9,190.2v7.75l-2.363-.99Z" transform="translate(172.259 -178.941)" fill="#fff"/>
        </g>
      </g>
      <g id="Group_2135" data-name="Group 2135" transform="translate(29.739 4.714)">
        <g id="Group_2134" data-name="Group 2134">
          <path id="Path_1795" data-name="Path 1795" d="M-158.744,185.35a4.14,4.14,0,0,0,3.87,4.171,4.144,4.144,0,0,0,3.9-4.171,4.145,4.145,0,0,0-3.9-4.173,4.141,4.141,0,0,0-3.87,4.173Zm-2.463,11.611V179.082l2.361,1.029v.463a5.737,5.737,0,0,1,4.021-1.634,6.457,6.457,0,0,1,6.459,6.459,6.457,6.457,0,0,1-6.459,6.459,5.7,5.7,0,0,1-4.021-1.659v7.75l-2.361-.99Z" transform="translate(161.207 -178.941)" fill="#fff"/>
        </g>
      </g>
      <g id="Group_2137" data-name="Group 2137" transform="translate(44.017 4.614)">
        <g id="Group_2136" data-name="Group 2136">
          <path id="Path_1796" data-name="Path 1796" d="M-139.979,185.324a4.048,4.048,0,0,0-3.871-4.2,4.028,4.028,0,0,0-3.845,4.2,4.035,4.035,0,0,0,3.845,4.221,4.055,4.055,0,0,0,3.871-4.221Zm2.563,6.183a6.381,6.381,0,0,1-6.459,6.233,6.583,6.583,0,0,1-5.076-2.338l2.186-1.382a3.953,3.953,0,0,0,2.839,1.432c2.614,0,3.795-1.885,4.021-3.945v-1.458a5.374,5.374,0,0,1-3.971,1.785,6.462,6.462,0,0,1-6.484-6.459,6.488,6.488,0,0,1,6.484-6.509,5.47,5.47,0,0,1,3.971,1.7V179.1l2.488,1.033v11.371Z" transform="translate(150.359 -178.865)" fill="#fff"/>
        </g>
      </g>
      <g id="Group_2139" data-name="Group 2139" transform="translate(58.54 4.739)">
        <g id="Group_2138" data-name="Group 2138">
          <path id="Path_1797" data-name="Path 1797" d="M-132.767,189.717a4.078,4.078,0,0,0,3.92-4.223,4.108,4.108,0,0,0-3.92-4.273,4.107,4.107,0,0,0-3.92,4.273,4.078,4.078,0,0,0,3.92,4.223Zm3.971,1.96v-1.507a5.033,5.033,0,0,1-4.021,1.734,6.5,6.5,0,0,1-6.509-6.459,6.474,6.474,0,0,1,6.509-6.484,5.032,5.032,0,0,1,4.021,1.735v-1.619l2.438,1.029v12.581l-2.438-1.01Z" transform="translate(139.326 -178.96)" fill="#fff"/>
        </g>
      </g>
      <g id="Group_2141" data-name="Group 2141" transform="translate(73.319)">
        <g id="Group_2140" data-name="Group 2140">
          <path id="Path_1798" data-name="Path 1798" d="M-123.4,189.2c0,1.156.679,1.483,1.709,1.483v2.513c-2.739,0-4.171-1.157-4.171-4v-6.635H-128.1v-2.313h2.238V175.36l2.463,1v3.89h2.916v2.313H-123.4V189.2Z" transform="translate(128.098 -175.36)" fill="#fff"/>
        </g>
      </g>
      <g id="Group_2143" data-name="Group 2143" transform="translate(81.755 4.664)">
        <g id="Group_2142" data-name="Group 2142">
          <path id="Path_1799" data-name="Path 1799" d="M-119,184.356h7.313a3.776,3.776,0,0,0-3.62-3.142A3.872,3.872,0,0,0-119,184.356Zm6.383,4.1h2.966a6.384,6.384,0,0,1-.623,1.012,6.166,6.166,0,0,1-4.982,2.481,6.446,6.446,0,0,1-6.433-6.509,6.452,6.452,0,0,1,6.433-6.534,6.385,6.385,0,0,1,6.334,6.534,5.89,5.89,0,0,1-.075.954h-10.054a3.908,3.908,0,0,0,3.745,3.318,3.435,3.435,0,0,0,2.689-1.257Z" transform="translate(121.689 -178.903)" fill="#fff"/>
        </g>
      </g>
    </g>
    <g id="Group_2145" data-name="Group 2145" transform="translate(99.228 4.317)">
      <path id="Path_1800" data-name="Path 1800" d="M-103.012,191.974a10.082,10.082,0,0,1-1.872-.4,4.85,4.85,0,0,1-2.422-1.57,5.862,5.862,0,0,1-1.108-2.617h4.736a1.689,1.689,0,0,0,1.128,1.2,6.412,6.412,0,0,0,2.192.328,4.913,4.913,0,0,0,1.756-.23.768.768,0,0,0,.55-.728.667.667,0,0,0-.09-.345.65.65,0,0,0-.247-.241,3.616,3.616,0,0,0-1.25-.3q-.914-.109-2.654-.213a9.7,9.7,0,0,1-4.267-1.046,3.033,3.033,0,0,1-1.393-2.8,3.667,3.667,0,0,1,1.722-3.195,8.683,8.683,0,0,1,4.914-1.171,10.467,10.467,0,0,1,5.083,1.029,5.048,5.048,0,0,1,2.406,3.478h-4.525a1.458,1.458,0,0,0-.986-1.082,6.351,6.351,0,0,0-2.1-.284,3.749,3.749,0,0,0-1.72.275.8.8,0,0,0-.479.7.594.594,0,0,0,.133.391,1.012,1.012,0,0,0,.505.266,8.311,8.311,0,0,0,1.135.2q.746.089,1.97.159a18.631,18.631,0,0,1,1.9.186,13.773,13.773,0,0,1,1.544.328,4.056,4.056,0,0,1,2.03,1.216,3.285,3.285,0,0,1,.666,2.156,4.355,4.355,0,0,1-.176,1.26,3.474,3.474,0,0,1-.55,1.082,4.578,4.578,0,0,1-2.236,1.553,11.58,11.58,0,0,1-3.921.559A18.907,18.907,0,0,1-103.012,191.974Z" transform="translate(108.414 -178.64)" fill="#f4992b"/>
      <path id="Path_1801" data-name="Path 1801" d="M-96.148,178.924h6.476A9.036,9.036,0,0,1-84,180.493a5.712,5.712,0,0,1,2.013,4.8v.054a7.8,7.8,0,0,1-.23,1.952,5.74,5.74,0,0,1-.674,1.6,5.537,5.537,0,0,1-2.618,2.068,10.829,10.829,0,0,1-4.054.683h-6.583Zm4.241,3.583v5.519h2.076a4.2,4.2,0,0,0,2.671-.649,2.55,2.55,0,0,0,.771-2.067v-.036a2.588,2.588,0,0,0-.788-2.128,4.415,4.415,0,0,0-2.725-.64Z" transform="translate(112.293 -178.55)" fill="#f4992b"/>
      <path id="Path_1802" data-name="Path 1802" d="M-80,188.593v3.052h-4.134V178.924h6.814q3.582,0,5.145,1.232a4.451,4.451,0,0,1,1.561,3.717,4.136,4.136,0,0,1-1.606,3.55,8.258,8.258,0,0,1-4.941,1.17Zm0-6.175v2.856h2.7a4.185,4.185,0,0,0,1.926-.311,1.129,1.129,0,0,0,.541-1.073,1.178,1.178,0,0,0-.594-1.2,4.905,4.905,0,0,0-1.926-.275Z" transform="translate(116.092 -178.55)" fill="#f4992b"/>
    </g>
  </g>
</svg>
