<svg xmlns="http://www.w3.org/2000/svg" xmlns:xlink="http://www.w3.org/1999/xlink" version="1.1" viewBox="0 0 164 41">
  <style xmlns="http://www.w3.org/2000/svg">
    @media (prefers-color-scheme: dark) {
      .ag-logo-svg {
        fill: #fff;
      }
    }
  </style>
  <path class="ag-logo-svg" d="M37.4,8.1c6.2,0,11.2,5,11.2,11.2s-5,11.2-11.2,11.2c-4.4,0-7-2.9-7-2.9V41l-4.1-1.7V8.4  l4.1,1.8V11C30.4,11,33,8.1,37.4,8.1z M62.7,8.1c6.2,0,11.2,5,11.2,11.2s-5,11.2-11.2,11.2c-4.4,0-7-2.9-7-2.9V41l-4.1-1.7V8.4  l4.1,1.8V11c0,0,0.1-0.1,0.3-0.3l0.2-0.1C57.1,9.7,59.4,8.1,62.7,8.1z M87.6,8c4.4,0,6.9,2.9,6.9,2.9V8.4l4.3,1.8v19.7  c0,5.9-5,10.8-11.2,10.8c-3.4,0-6.6-1.5-8.8-4l3.8-2.4c1.3,1.3,2.7,2.5,4.9,2.5c4.5,0,6.6-3.3,7-6.8v-2.5c-1.8,1.9-4.3,3.1-6.9,3.1  c-6.2,0-11.2-5-11.2-11.2S81.4,8,87.6,8z M11.3,8.2c4,0,6.2,2.1,6.8,2.8l0.1,0.1c0.1,0.1,0.1,0.1,0.1,0.1V8.4l4.2,1.8v21.7l-4.2-1.7  l0,0v-2.6c0,0-2.2,3-7,3C5.1,30.6,0,25.5,0,19.4c0-3,1.2-5.8,3.3-7.9S8.3,8.2,11.3,8.2z M112.8,8.2c4.8,0,7,3,7,3V8.4l4.2,1.8v21.7  l-4.2-1.7l0-2.6c0,0-2.2,3-7,3c-6.2,0-11.3-5-11.3-11.2c0-3,1.2-5.8,3.3-7.9S109.8,8.2,112.8,8.2z M131.1,0l4.3,1.7v6.7h5.1v4h-5.1  v11.5c0,2,1.2,2.6,3,2.6v4.3c-4.8,0-7.2-2-7.2-6.9V12.4h-3.9v-4h3.9V0z M153,8.1c6.2,0,11,5.1,11,11.3c0,0.6,0,1.1-0.1,1.7h-17.4  c0.7,3.3,3.3,5.7,6.5,5.7c1.8,0,3.5-0.8,4.7-2.2h5.1c-0.3,0.6-0.7,1.2-1.1,1.7c-2,2.7-5.2,4.3-8.6,4.3c-6.3,0-11.2-5.1-11.2-11.3  C141.8,13.1,146.7,8.1,153,8.1z M11.4,12.1c-3.8,0-6.8,3.3-6.8,7.4c0,4,3,7.3,6.8,7.3l0,0c3.8,0,6.8-3.3,6.8-7.3  C18.2,15.4,15.2,12.1,11.4,12.1z M112.9,12.1c-3.8,0-6.8,3.3-6.8,7.4c0,4,3,7.3,6.8,7.3l0,0c3.8,0,6.8-3.3,6.8-7.3  C119.7,15.4,116.7,12.1,112.9,12.1z M37.3,12c-3.7,0-6.7,3.5-6.7,7.2c0,3.7,3,7.2,6.7,7.2c3.8,0,6.8-3.5,6.8-7.2S41.1,12,37.3,12z   M62.6,12c-3.7,0-6.7,3.5-6.7,7.2c0,3.7,3,7.2,6.7,7.2c3.7,0,6.8-3.5,6.8-7.2S66.3,12,62.6,12z M87.6,11.9c-3.7,0-6.7,3.3-6.7,7.3  c0,4,3,7.3,6.7,7.3s6.7-3.3,6.7-7.3C94.4,15.1,91.4,11.9,87.6,11.9z M152.9,12.1c-3.1,0-5.7,2.3-6.4,5.4h12.7  C158.5,14.4,156,12.1,152.9,12.1z" fill="#0f0f0f" />
</svg>
