<svg width="800" height="354" viewBox="0 0 800 354"
  xmlns="http://www.w3.org/2000/svg">
  <style>
  @media (prefers-color-scheme: dark) {
    path { fill: #ffffff; }
  }
  </style>
  <rect width="800" height="354" fill="transparent"/>
  <path d="M117.983 165.215V153.619C117.983 153.619 108.324 166.953 87.0489 166.953C59.4179 166.953 37 144.542 37 117.295C37 90.0479 59.4179 67.4335 87.0645 67.4335C108.324 67.4335 117.999 80.7674 117.999 80.7674V68.3255L136.753 76.2601V172.978L117.999 165.215H117.983ZM87.4402 150.144C104.254 150.144 117.592 135.449 117.592 117.686C117.592 99.9231 104.254 84.8364 87.4402 84.8364C70.6268 84.8364 57.2888 99.7197 57.2888 117.686C57.2888 135.652 70.6268 150.144 87.4402 150.144Z" fill="#0F0F0F"/>
  <path d="M153.833 205.796V68.3256L172.008 76.2445V79.8128C172.008 79.8128 183.421 67.2457 202.943 67.2457C230.386 67.2457 252.616 89.4689 252.616 116.904C252.616 144.338 230.386 166.561 202.943 166.561C183.421 166.561 172.008 153.807 172.008 153.807V213.402L153.833 205.796ZM172.776 116.528C172.776 132.945 186.114 148.611 202.536 148.611C218.958 148.611 232.499 132.961 232.499 116.528C232.499 100.095 219.161 84.4452 202.536 84.4452C185.91 84.4452 172.776 100.095 172.776 116.528Z" fill="#0F0F0F"/>
  <path d="M265.719 205.796V68.3256L283.894 76.2445V79.8128C283.894 79.8128 295.307 67.2457 314.828 67.2457C342.271 67.2457 364.501 89.4689 364.501 116.904C364.501 144.338 342.271 166.561 314.828 166.561C295.307 166.561 283.894 153.807 283.894 153.807V213.402L265.719 205.796ZM284.661 116.528C284.661 132.945 297.999 148.611 314.421 148.611C330.843 148.611 344.385 132.961 344.385 116.528C344.385 100.095 331.047 84.4452 314.421 84.4452C297.796 84.4452 284.661 100.095 284.661 116.528Z" fill="#0F0F0F"/>
  <path d="M475.104 163.666C475.104 189.755 452.873 211.587 425.43 211.587C409.572 211.587 395.67 204.622 386.387 193.62L403.2 182.994C408.993 188.597 415.176 194.012 425.039 194.012C445.14 194.012 454.22 179.52 455.973 163.682V152.476C455.973 152.476 444.952 166.201 425.43 166.201C397.784 166.201 375.554 143.978 375.554 116.544C375.554 89.1089 397.784 66.4945 425.43 66.4945C444.952 66.4945 455.973 79.5311 455.973 79.5311V68.3256L475.104 76.2758V163.713V163.666ZM455.394 116.137C455.394 98.3582 442.056 83.8661 425.618 83.8661C409.181 83.8661 396.046 98.3582 396.046 116.137C396.046 133.915 409.181 148.595 425.618 148.595C442.056 148.595 455.394 134.103 455.394 116.137Z" fill="#0F0F0F"/>
  <path d="M568.235 165.215V153.619C568.235 153.619 558.576 166.953 537.301 166.953C509.67 166.953 487.236 144.542 487.236 117.295C487.236 90.0479 509.654 67.4335 537.301 67.4335C558.56 67.4335 568.235 80.7674 568.235 80.7674V68.3255L586.99 76.2445V172.978L568.235 165.215ZM537.692 150.144C554.506 150.144 567.844 135.449 567.844 117.686C567.844 99.9231 554.506 84.8364 537.692 84.8364C520.879 84.8364 507.541 99.7197 507.541 117.686C507.541 135.652 520.879 150.144 537.692 150.144Z" fill="#0F0F0F"/>
  <path d="M637.07 137.39C637.07 146.279 642.299 148.798 650.22 148.798V168.126C629.149 168.126 618.128 159.237 618.128 137.405V86.3701H600.923V68.5916H618.128V31L637.07 38.6842V68.5916H659.488V86.3701H637.07V137.39Z" fill="#0F0F0F"/>
  <path d="M735.587 140.285H758.396C757.034 143.039 755.437 145.653 753.621 148.063C744.87 159.722 731.141 167.14 715.298 167.14C687.463 167.14 665.812 144.526 665.812 117.091C665.812 89.6567 687.463 66.8545 715.298 66.8545C743.132 66.8545 764 89.4689 764 117.091C764 119.611 763.812 122.115 763.421 124.431H686.101C688.997 139.127 700.598 149.941 714.906 149.941C723.219 149.941 730.373 146.467 735.587 140.285ZM686.493 108.781H742.741C739.641 94.8682 728.824 84.633 714.906 84.633C700.989 84.633 689.78 94.8839 686.493 108.781Z" fill="#0F0F0F"/>
  <path d="M75.1826 282.826C72.2864 285.314 68.3727 286.238 63.6762 286.238H56.1462V309.134H52.2324V260.071H63.6762C68.3883 260.071 72.2864 260.994 75.1826 263.483C78.0787 265.971 79.7382 268.882 79.7382 273.154C79.7382 277.427 78.0787 280.338 75.1826 282.826ZM63.8171 263.561H56.1462V282.763H63.8171C70.1104 282.763 75.6209 280.134 75.6209 273.17C75.6209 266.206 70.126 263.576 63.8171 263.576V263.561Z" fill="#0F0F0F"/>
  <path d="M114.649 293.484H87.3465C87.7065 301.309 92.1995 306.505 99.8078 306.505C107.416 306.505 111.612 302.232 111.612 302.232L113.428 304.862C113.428 304.862 109.232 309.838 99.4477 309.838C89.6634 309.838 83.3701 302.733 83.3701 292.623C83.3701 282.513 90.7592 275.549 99.6669 275.549C108.575 275.549 114.868 282.091 114.868 290.98C114.868 292.044 114.649 293.468 114.649 293.468V293.484ZM99.4477 278.757C91.1193 278.757 87.7222 285.659 87.503 290.276H111.032C111.032 286.003 107.776 278.757 99.4477 278.757Z" fill="#0F0F0F"/>
  <path d="M137.818 309.838C128.268 309.838 120.66 302.733 120.66 292.764C120.66 282.795 128.268 275.549 137.818 275.549C147.367 275.549 155.054 282.81 155.054 292.764C155.054 302.717 147.446 309.838 137.818 309.838ZM137.818 278.757C129.709 278.757 124.637 284.939 124.637 292.623C124.637 300.307 129.709 306.489 137.818 306.489C145.927 306.489 151.062 300.229 151.062 292.623C151.062 285.017 145.99 278.757 137.818 278.757Z" fill="#0F0F0F"/>
  <path d="M180.164 309.838C175.311 309.838 170.756 307.913 167.499 302.937V322.64H163.742V276.128H167.499V282.529C170.317 277.834 174.951 275.564 180.023 275.564C190.371 275.564 196.68 283.03 196.68 292.78C196.68 302.53 190.168 309.854 180.18 309.854L180.164 309.838ZM180.023 278.757C171.836 278.757 167.358 285.017 167.358 292.764C167.358 300.511 171.851 306.489 180.023 306.489C188.195 306.489 192.688 300.448 192.688 292.764C192.688 285.08 188.133 278.757 180.023 278.757Z" fill="#0F0F0F"/>
  <path d="M205.369 309.134V260.071H209.142V309.134H205.369Z" fill="#0F0F0F"/>
  <path d="M249.093 293.484H221.791C222.151 301.309 226.644 306.505 234.252 306.505C241.86 306.505 246.056 302.232 246.056 302.232L247.872 304.862C247.872 304.862 243.676 309.838 233.892 309.838C224.108 309.838 217.814 302.733 217.814 292.623C217.814 282.513 225.204 275.549 234.111 275.549C243.019 275.549 249.312 282.091 249.312 290.98C249.312 292.044 249.093 293.468 249.093 293.468V293.484ZM233.892 278.757C225.564 278.757 222.167 285.659 221.947 290.276H245.477C245.477 286.003 242.221 278.757 233.892 278.757Z" fill="#0F0F0F"/>
  <path d="M253.367 291.136V287.584H269.226V291.136H253.367Z" fill="#0F0F0F"/>
  <path d="M290.657 309.134H276.896V260.071H290.657C305.06 260.071 316.503 270.165 316.503 284.61C316.503 299.055 305.06 309.15 290.657 309.15V309.134ZM290.297 263.545H280.81V305.644H290.297C302.899 305.644 312.449 297.318 312.449 284.595C312.449 271.871 302.821 263.545 290.297 263.545Z" fill="#0F0F0F"/>
  <path d="M353.793 293.484H326.491C326.851 301.309 331.344 306.505 338.952 306.505C346.561 306.505 350.756 302.232 350.756 302.232L352.572 304.862C352.572 304.862 348.377 309.838 338.592 309.838C328.808 309.838 322.515 302.733 322.515 292.623C322.515 282.513 329.904 275.549 338.811 275.549C347.719 275.549 354.012 282.091 354.012 290.98C354.012 292.044 353.793 293.468 353.793 293.468V293.484ZM338.592 278.757C330.264 278.757 326.867 285.659 326.648 290.276H350.177C350.177 286.003 346.921 278.757 338.592 278.757Z" fill="#0F0F0F"/>
  <path d="M372.846 262.559C367.413 262.559 366.834 266.832 366.834 271.448V276.284H375.382V279.633H366.834V309.15H363.077V279.633H358.005V276.284H363.077V271.808C363.077 267.192 363.938 264.703 365.034 263.138C366.114 261.495 368.509 259.367 372.126 259.367C375.742 259.367 376.838 260.071 376.838 260.071L376.478 263.263C375.241 262.763 374.082 262.559 372.861 262.559H372.846ZM382.192 267.473C380.454 267.473 379.076 266.127 379.076 264.422C379.076 262.716 380.454 261.37 382.192 261.37C383.929 261.37 385.307 262.716 385.307 264.422C385.307 266.127 383.929 267.473 382.192 267.473ZM380.313 309.15V276.159H384.149V309.15H380.313Z" fill="#0F0F0F"/>
  <path d="M417.948 309.134V289.571C417.948 284.235 417.008 278.757 409.76 278.757C402.512 278.757 399.036 284.939 399.036 292.764V309.118H395.264V276.128H399.036V282.247C400.696 278.335 405.048 275.564 409.901 275.564C419.529 275.564 421.767 281.605 421.767 289.43V309.134H417.932H417.948Z" fill="#0F0F0F"/>
  <path d="M461.03 293.484H433.727C434.087 301.309 438.58 306.505 446.189 306.505C453.797 306.505 457.993 302.232 457.993 302.232L459.808 304.862C459.808 304.862 455.613 309.838 445.829 309.838C436.044 309.838 429.751 302.733 429.751 292.623C429.751 282.513 437.14 275.549 446.048 275.549C454.955 275.549 461.249 282.091 461.249 290.98C461.249 292.044 461.03 293.468 461.03 293.468V293.484ZM445.829 278.757C437.5 278.757 434.103 285.659 433.884 290.276H457.413C457.413 286.003 454.157 278.757 445.829 278.757Z" fill="#0F0F0F"/>
  <path d="M483.541 275.564C488.394 275.564 492.887 277.489 496.144 282.325V260.071H499.979V309.134H496.144V303.015C493.326 307.71 488.754 309.838 483.682 309.838C473.553 309.838 467.025 302.373 467.025 292.623C467.025 282.873 473.538 275.549 483.526 275.549L483.541 275.564ZM483.682 306.505C491.87 306.505 496.347 300.245 496.347 292.639C496.347 285.033 491.854 278.773 483.682 278.773C475.51 278.773 471.017 284.954 471.017 292.639C471.017 300.323 475.573 306.505 483.682 306.505Z" fill="#0F0F0F"/>
  <path d="M538.788 309.995C529.082 309.995 524.605 303.171 523.509 301.184L526.546 299.055C528.362 302.326 532.698 306.661 539.148 306.661C545.598 306.661 550.811 302.749 550.811 296.348C550.811 289.947 544.158 287.537 541.246 286.394C538.35 285.252 535.093 283.906 533.058 282.842C531.101 281.778 525.826 278.569 525.826 271.464C525.826 264.359 532.119 259.367 540.526 259.367C548.932 259.367 553.128 265.063 553.551 265.767L550.795 268.115C548.917 265.767 546.021 262.778 540.228 262.778C534.436 262.778 529.802 265.767 529.802 271.308C529.802 276.848 533.716 279.054 537.254 280.557C540.808 282.044 546.381 284.329 547.539 284.97C548.698 285.612 554.772 288.883 554.772 296.348C554.772 303.813 548.478 309.995 538.772 309.995H538.788Z" fill="#0F0F0F"/>
  <path d="M592.234 293.484H564.931C565.292 301.309 569.784 306.505 577.393 306.505C585.001 306.505 589.197 302.232 589.197 302.232L591.013 304.862C591.013 304.862 586.817 309.838 577.033 309.838C567.248 309.838 560.955 302.733 560.955 292.623C560.955 282.513 568.344 275.549 577.252 275.549C586.16 275.549 592.453 282.091 592.453 290.98C592.453 292.044 592.234 293.468 592.234 293.468V293.484ZM577.033 278.757C568.704 278.757 565.307 285.659 565.088 290.276H588.617C588.617 286.003 585.361 278.757 577.033 278.757Z" fill="#0F0F0F"/>
  <path d="M614.667 309.838C605.619 309.838 598.229 302.733 598.229 292.623C598.229 282.513 606.198 275.549 615.027 275.549C623.857 275.549 627.551 280.306 628.271 281.245L625.876 283.734C624.42 282.091 621.524 278.898 614.871 278.898C608.217 278.898 602.206 284.235 602.206 292.404C602.206 300.573 607.419 306.489 615.027 306.489C622.636 306.489 626.252 301.653 626.252 301.653L628.428 304.142C627.191 305.566 623.716 309.838 614.667 309.838Z" fill="#0F0F0F"/>
  <path d="M656.889 309.134V303.797C654.713 307.71 650.736 309.838 646.024 309.838C636.756 309.838 634.439 303.86 634.439 295.753V276.128H638.212V296.332C638.212 301.309 639.152 306.646 646.541 306.646C653.93 306.646 656.889 300.245 656.889 293.844V276.144H660.646V309.134H656.889Z" fill="#0F0F0F"/>
  <path d="M683.456 279.117C677.006 279.117 675.268 286.3 675.268 291.355V309.134H671.495V276.144H675.268V282.325C676.505 277.849 680.184 275.564 683.816 275.564C685.992 275.564 687.432 276.065 687.432 276.065L687.072 279.696C686.273 279.414 685.256 279.133 683.456 279.133V279.117Z" fill="#0F0F0F"/>
  <path d="M695.479 267.458C693.741 267.458 692.363 266.112 692.363 264.406C692.363 262.7 693.741 261.354 695.479 261.354C697.216 261.354 698.594 262.7 698.594 264.406C698.594 266.112 697.216 267.458 695.479 267.458ZM693.6 309.134V276.143H697.357V309.134H693.6Z" fill="#0F0F0F"/>
  <path d="M717.27 309.838C714.014 309.838 712.136 308.492 710.899 306.286C709.74 304.079 709.662 301.669 709.662 296.332V279.618H704.59V276.269H709.662V265.736H713.498V276.269H721.967V279.618H713.419V298.539C713.419 302.17 713.858 306.505 718.335 306.505C720.511 306.505 721.951 305.581 721.951 305.581L722.311 308.774C721.075 309.478 719.415 309.838 717.239 309.838H717.27Z" fill="#0F0F0F"/>
  <path d="M737.903 316.818C735.586 322.296 732.69 323 730.373 323C728.056 323 726.318 322.139 726.318 322.139L727.038 318.587C727.038 318.587 728.338 319.291 730.373 319.291C732.408 319.291 733.77 318.587 735.367 314.095L737.324 308.617L723.782 276.112H727.759L739.343 304.846L750.928 276.112H754.904L737.887 316.787L737.903 316.818Z" fill="#0F0F0F"/>
</svg>
