<svg viewBox="0 0 500 500"
  xmlns="http://www.w3.org/2000/svg">
  <style>
    #applg path {
      fill: #000;
    }

    @media (prefers-color-scheme: dark) {
      #applg path {
        fill: #fff;
      }
    }
  </style>
  <g id="applg">
    <path d="M387.785 267.9c-.635-62.95 51.575-93.15 53.915-94.68-29.35-42.7-75.05-48.565-91.32-49.23-38.87-3.93-75.88 22.79-95.6 22.79-19.68 0-50.15-22.215-82.375-21.65-42.4.63-81.48 24.55-103.3 62.335-44.03 76.05-11.26 188.75 31.65 250.465 20.975 30.17 45.99 64.115 78.81 62.875 31.63-1.25 43.565-20.37 81.8-20.37 38.25 0 48.985 20.37 82.45 19.73 34.01-.615 55.575-30.74 76.38-61.03 24.085-35.05 34-68.985 34.585-70.7-.74-.35-66.31-25.35-66.99-100.525l-.005-.01zm-62.87-184.76c17.4-21.035 29.2-50.265 25.99-79.36C325.8 4.79 295.39 20.4 277.35 41.41c-16.15 18.65-30.285 48.35-26.5 76.915 28.025 2.165 56.6-14.2 74.065-35.185h0z" />
  </g>
</svg>